<?xml version="1.0" encoding="UTF-8" standalone="no"?>
<svg
   xmlns:dc="http://purl.org/dc/elements/1.1/"
   xmlns:cc="http://creativecommons.org/ns#"
   xmlns:rdf="http://www.w3.org/1999/02/22-rdf-syntax-ns#"
   xmlns:svg="http://www.w3.org/2000/svg"
   xmlns="http://www.w3.org/2000/svg"
   xmlns:sodipodi="http://sodipodi.sourceforge.net/DTD/sodipodi-0.dtd"
   xmlns:inkscape="http://www.inkscape.org/namespaces/inkscape"
   width="24"
   height="24"
   viewBox="0 0 24 24"
   fill="none"
   version="1.1"
   id="svg4"
   sodipodi:docname="icon-heart.svg"
   inkscape:version="0.92.3 (2405546, 2018-03-11)">
  <metadata
     id="metadata10">
    <rdf:RDF>
      <cc:Work
         rdf:about="">
        <dc:format>image/svg+xml</dc:format>
        <dc:type
           rdf:resource="http://purl.org/dc/dcmitype/StillImage" />
        <dc:title></dc:title>
      </cc:Work>
    </rdf:RDF>
  </metadata>
  <defs
     id="defs8" />
  <sodipodi:namedview
     pagecolor="#ffffff"
     bordercolor="#666666"
     borderopacity="1"
     objecttolerance="10"
     gridtolerance="10"
     guidetolerance="10"
     inkscape:pageopacity="0"
     inkscape:pageshadow="2"
     inkscape:window-width="1920"
     inkscape:window-height="1020"
     id="namedview6"
     showgrid="false"
     inkscape:zoom="27.812867"
     inkscape:cx="6.9382512"
     inkscape:cy="12.567758"
     inkscape:window-x="0"
     inkscape:window-y="28"
     inkscape:window-maximized="1"
     inkscape:current-layer="svg4" />
  <path
     style="color:#000000;font-style:normal;font-variant:normal;font-weight:normal;font-stretch:normal;font-size:medium;line-height:normal;font-family:sans-serif;font-variant-ligatures:normal;font-variant-position:normal;font-variant-caps:normal;font-variant-numeric:normal;font-variant-alternates:normal;font-feature-settings:normal;text-indent:0;text-align:start;text-decoration:none;text-decoration-line:none;text-decoration-style:solid;text-decoration-color:#000000;letter-spacing:normal;word-spacing:normal;text-transform:none;writing-mode:lr-tb;direction:ltr;text-orientation:mixed;dominant-baseline:auto;baseline-shift:baseline;text-anchor:start;white-space:normal;shape-padding:0;clip-rule:nonzero;display:inline;overflow:visible;visibility:visible;opacity:1;isolation:auto;mix-blend-mode:normal;color-interpolation:sRGB;color-interpolation-filters:linearRGB;solid-color:#000000;solid-opacity:1;vector-effect:none;fill:#141414;fill-opacity:1;fill-rule:nonzero;stroke:none;stroke-width:2;stroke-linecap:round;stroke-linejoin:round;stroke-miterlimit:4;stroke-dasharray:none;stroke-dashoffset:0;stroke-opacity:1;color-rendering:auto;image-rendering:auto;shape-rendering:auto;text-rendering:auto;enable-background:accumulate"
     d="m 7.0507812,1.9980469 c -1.7238716,0 -3.3787025,0.6853432 -4.5976562,1.9042969 C 1.2341608,5.1213079 0.54882813,6.7761411 0.54882812,8.5 c 0,1.723867 0.68533268,3.378692 1.90429688,4.597656 l 1.0605469,1.058594 7.7792971,7.78125 a 1.0001,1.0001 0 0 0 1.414062,0 l 7.779297,-7.78125 1.060547,-1.058594 c 0.603886,-0.60365 1.083299,-1.320592 1.410156,-2.109375 0.326925,-0.788839 0.494141,-1.6344858 0.494141,-2.488281 0,-0.853787 -0.167229,-1.6994146 -0.494141,-2.4882812 C 22.630178,5.2229935 22.150801,4.5059859 21.546875,3.9023438 20.943255,3.2984996 20.226247,2.8209849 19.4375,2.4941406 18.64868,2.1673151 17.803068,1.9980469 16.949219,1.9980469 c -0.85385,0 -1.699462,0.1692682 -2.488281,0.4960937 -0.788747,0.3268443 -1.503803,0.804359 -2.107422,1.4082032 L 12,4.2558594 11.646484,3.9023438 C 10.427523,2.6833941 8.7746447,1.9980469 7.0507812,1.9980469 Z m 0,2 c 1.1941966,0 2.3372022,0.473929 3.1816408,1.3183593 l 1.060547,1.0605469 a 1.0001,1.0001 0 0 0 1.414062,0 l 1.060547,-1.0605469 c 0.41798,-0.4181358 0.912931,-0.7483336 1.458984,-0.9746093 0.546181,-0.2262945 1.131506,-0.34375 1.722657,-0.34375 0.59115,0 1.176476,0.1174555 1.722656,0.34375 0.546053,0.2262757 1.042957,0.5564735 1.460937,0.9746093 0.418075,0.4178779 0.750216,0.9147428 0.976563,1.4609376 0.226288,0.5460533 0.341797,1.1314832 0.341797,1.7226562 0,0.5911848 -0.115522,1.1766755 -0.341797,1.722656 -0.226343,0.546217 -0.558449,1.042988 -0.976563,1.460938 L 19.072266,12.742188 12,19.816406 4.9277344,12.742188 3.8671875,11.683594 C 3.0227517,10.839158 2.5488281,9.6942129 2.5488281,8.5 c 0,-1.1942011 0.4739236,-2.3391579 1.3183594,-3.1835938 C 4.7116138,4.4719799 5.8565729,3.9980469 7.0507812,3.9980469 Z"
     id="path2"
     inkscape:connector-curvature="0" />
</svg>
