<?xml version="1.0" encoding="UTF-8" standalone="no"?>
<svg
   xmlns:dc="http://purl.org/dc/elements/1.1/"
   xmlns:cc="http://creativecommons.org/ns#"
   xmlns:rdf="http://www.w3.org/1999/02/22-rdf-syntax-ns#"
   xmlns:svg="http://www.w3.org/2000/svg"
   xmlns="http://www.w3.org/2000/svg"
   xmlns:sodipodi="http://sodipodi.sourceforge.net/DTD/sodipodi-0.dtd"
   xmlns:inkscape="http://www.inkscape.org/namespaces/inkscape"
   width="24"
   height="24"
   viewBox="0 0 24 24"
   fill="none"
   version="1.1"
   id="svg11"
   sodipodi:docname="icon-github.svg"
   inkscape:version="0.92.3 (2405546, 2018-03-11)">
  <metadata
     id="metadata15">
    <rdf:RDF>
      <cc:Work
         rdf:about="">
        <dc:format>image/svg+xml</dc:format>
        <dc:type
           rdf:resource="http://purl.org/dc/dcmitype/StillImage" />
        <dc:title></dc:title>
      </cc:Work>
    </rdf:RDF>
  </metadata>
  <sodipodi:namedview
     pagecolor="#ffffff"
     bordercolor="#666666"
     borderopacity="1"
     objecttolerance="10"
     gridtolerance="10"
     guidetolerance="10"
     inkscape:pageopacity="0"
     inkscape:pageshadow="2"
     inkscape:window-width="1920"
     inkscape:window-height="1020"
     id="namedview13"
     showgrid="false"
     inkscape:zoom="27.812867"
     inkscape:cx="8.9785751"
     inkscape:cy="11.912472"
     inkscape:window-x="0"
     inkscape:window-y="28"
     inkscape:window-maximized="1"
     inkscape:current-layer="g4" />
  <g
     clip-path="url(#clip0)"
     id="g4">
    <path
       style="color:#000000;font-style:normal;font-variant:normal;font-weight:normal;font-stretch:normal;font-size:medium;line-height:normal;font-family:sans-serif;font-variant-ligatures:normal;font-variant-position:normal;font-variant-caps:normal;font-variant-numeric:normal;font-variant-alternates:normal;font-feature-settings:normal;text-indent:0;text-align:start;text-decoration:none;text-decoration-line:none;text-decoration-style:solid;text-decoration-color:#000000;letter-spacing:normal;word-spacing:normal;text-transform:none;writing-mode:lr-tb;direction:ltr;text-orientation:mixed;dominant-baseline:auto;baseline-shift:baseline;text-anchor:start;white-space:normal;shape-padding:0;clip-rule:nonzero;display:inline;overflow:visible;visibility:visible;opacity:1;isolation:auto;mix-blend-mode:normal;color-interpolation:sRGB;color-interpolation-filters:linearRGB;solid-color:#000000;solid-opacity:1;vector-effect:none;fill:#141414;fill-opacity:1;fill-rule:nonzero;stroke:none;stroke-width:2;stroke-linecap:round;stroke-linejoin:round;stroke-miterlimit:4;stroke-dasharray:none;stroke-dashoffset:0;stroke-opacity:1;color-rendering:auto;image-rendering:auto;shape-rendering:auto;text-rendering:auto;enable-background:accumulate"
       d="m 5.2890625,-0.02539063 c -0.239496,0.0065916 -0.484375,0.06640625 -0.484375,0.06640625 A 1.0001,1.0001 0 0 0 4.1699219,0.60546875 C 3.6308509,1.8632006 3.6163896,3.2495387 3.96875,4.5605469 3.0615735,5.7030108 2.4930751,7.0808034 2.5,8.5507812 c 0,0.4144373 0.017481,0.8083946 0.052734,1.1855469 0.230162,2.4623299 1.2615389,4.1830369 2.6621094,5.2148439 0.9645842,0.710614 2.0517887,1.052729 3.1386718,1.292969 -0.023448,0.05678 -0.076583,0.09646 -0.097656,0.154297 -0.1312079,0.3601 -0.1249422,0.745176 -0.1582032,1.125 l -5.703125,-2.44336 -0.015625,0.04492 c -0.05978,-0.01961 -0.07377,-0.07997 -0.1367187,-0.0957 a 1.0001,1.0001 0 0 0 -0.6367187,1.890625 l 0.1914062,0.08203 c 0.1866026,0.05755 0.3822165,0.19249 0.6757812,0.537109 0.3105768,0.364591 0.6736332,0.89629 1.1953126,1.417969 0.5216793,0.52168 1.2372052,1.030915 2.1816406,1.251953 C 6.4404299,20.347262 7.2526214,20.149723 8,20.050781 V 22 a 1.0001,1.0001 0 1 0 2,0 v -3.021484 -0.847657 a 1.0001,1.0001 0 0 0 -0.00195,-0.07031 c -0.023341,-0.33187 0.022833,-0.665956 0.1367191,-0.978516 0.113888,-0.312586 0.291995,-0.596757 0.523437,-0.835937 A 1.0001,1.0001 0 0 0 10.0625,14.558594 C 8.6793632,14.386803 7.361276,14.047733 6.4003906,13.339844 5.4395053,12.631955 4.7346002,11.580006 4.5449219,9.5507812 4.5158691,9.2399638 4.5,8.9074672 4.5,8.5507812 a 1.0001,1.0001 0 0 0 0,-0.00586 C 4.4938932,7.3966002 4.9327878,6.2906717 5.7246094,5.4589844 A 1.0001,1.0001 0 0 0 5.9375,4.4199219 C 5.6521496,3.6553172 5.6768102,2.8418347 5.8652344,2.0585938 6.3581872,2.1735241 7.1876727,2.4688224 8.4433594,3.3105469 a 1.0001,1.0001 0 0 0 0.8183594,0.1347656 c 2.1207542,-0.5747688 4.3558082,-0.5747688 6.4765622,0 a 1.0001,1.0001 0 0 0 0.81836,-0.1347656 c 1.255686,-0.8417245 2.085172,-1.1370228 2.578125,-1.2519531 0.188431,0.7832526 0.213098,1.5967538 -0.07227,2.3613281 a 1.0001,1.0001 0 0 0 0.212891,1.0390625 c 0.785946,0.8255417 1.224364,1.9206548 1.224609,3.0605468 0,2.5285348 -0.705895,3.8266378 -1.685547,4.6503908 -0.979652,0.823752 -2.380911,1.190019 -3.865234,1.355469 a 1.0001,1.0001 0 0 0 -0.607422,1.691406 c 0.234084,0.241467 0.415267,0.529148 0.529297,0.845703 0.113974,0.3164 0.159187,0.65293 0.132812,0.988281 A 1.0001,1.0001 0 0 0 15,18.130859 V 22 a 1.0001,1.0001 0 1 0 2,0 v -3.869141 l -0.0039,0.07813 c 0.04863,-0.618249 -0.03392,-1.240618 -0.244141,-1.824218 -0.02296,-0.06375 -0.08158,-0.107446 -0.107422,-0.169922 1.211155,-0.257249 2.423947,-0.64499 3.457031,-1.513672 C 21.556911,13.477424 22.5,11.450996 22.5,8.5195312 22.499686,7.0599871 21.932259,5.692827 21.03125,4.5585938 21.38304,3.2481016 21.368859,1.8625723 20.830078,0.60546875 A 1.0001,1.0001 0 0 0 20.195312,0.04101562 c 0,0 -0.244878,-0.05981464 -0.484374,-0.06640625 -0.239497,-0.0065916 -0.556522,0.01633524 -0.949219,0.10351563 -0.691009,0.15340679 -1.723376,0.63920988 -2.919922,1.3808594 -2.200716,-0.52683833 -4.482878,-0.52683833 -6.6835939,0 C 7.961657,0.71733488 6.92929,0.23153179 6.2382812,0.078125 5.8455841,-0.00905539 5.5285585,-0.03198223 5.2890625,-0.02539063 Z"
       id="path2"
       inkscape:connector-curvature="0" />
  </g>
  <defs
     id="defs9">
    <clipPath
       id="clip0">
      <rect
         width="24"
         height="24"
         fill="white"
         id="rect6" />
    </clipPath>
  </defs>
</svg>
